<?xml version="1.0" encoding="utf-8" ?><svg xmlns="http://www.w3.org/2000/svg" xmlns:xlink="http://www.w3.org/1999/xlink" width="2000" height="2000" viewBox="0 0 2000 2000"><path fill="#6327D3" d="M1001.27 262.669C1005.99 267.282 1030.1 309.156 1034.71 316.841C1068.07 371.436 1100.77 426.427 1132.81 481.803L1527.82 1150.22C1460.25 1185.67 1390.98 1217.77 1320.26 1246.43C1294.24 1205.07 1268.05 1159.27 1242.85 1117.06L1090.34 861.599L1038.7 775.088C1026.46 754.507 1013.95 732.687 1000.5 713.002C964.425 771.995 928.953 831.354 894.088 891.069L651.214 1298.51C643.715 1311.74 633.322 1327.46 625.165 1340.71C606.687 1370.63 588.441 1400.7 570.429 1430.9L773.687 1431.6C687.014 1512.78 596.328 1591.99 508.999 1672.93C395.789 1671.4 282.564 1671.33 169.353 1672.74C196.801 1619.96 234.91 1559.67 265.506 1507.86L444.999 1204C628.68 889.197 814.107 575.415 1001.27 262.669Z"/><path fill="#FEFEFE" d="M1467.94 686.026C1470.01 685.72 1472.1 685.629 1474.19 685.59C1500.91 685.091 1529.04 689.932 1555.55 693.459C1669.2 708.58 1817.66 742.893 1903.33 824.802C1937.8 857.763 1961.76 901.301 1962.53 949.734C1963.6 1017.86 1917.58 1080.89 1871.97 1127.75C1725.48 1278.27 1437.79 1387.87 1232.07 1423.1C1165.17 1434.56 1098.6 1438.38 1030.83 1439.23C978.426 1438.26 934.516 1436.35 882.274 1429.67C928.697 1418.03 974.348 1408.9 1021.14 1396.23C1185.99 1351.59 1352.9 1295.6 1505.9 1218.36C1609.59 1166.02 1771.21 1070.57 1812.68 953.016C1823.66 921.905 1820.26 887.901 1804.69 858.857C1757.93 771.607 1630.11 725.306 1540.58 701.801C1525.68 697.918 1510.65 694.535 1495.52 691.658C1487.43 690.088 1475.3 688.579 1467.94 686.026Z"/><path fill="#6327D3" d="M1641.07 1347.54C1645.22 1348.98 1663.88 1381.41 1667.13 1386.78C1681.45 1410.45 1695.65 1434.19 1709.71 1458.02L1835.57 1672.35C1768.05 1674.55 1690.84 1672.75 1622.56 1672.63L1571.78 1672.68C1555.71 1647.37 1538.87 1617.41 1523.07 1591.25C1490.26 1537.92 1458.12 1484.18 1426.65 1430.04C1450.28 1421.68 1475.11 1414.56 1499.07 1406.07C1547.38 1389.02 1594.78 1369.48 1641.07 1347.54Z"/><path fill="#FEFEFE" d="M642.403 765.03C641.328 767.542 642.037 766.812 638.695 768.149C624.253 773.923 609.552 779.229 595.159 785.121C572.367 794.556 549.937 804.844 527.918 815.963C404.467 877.54 271.515 965.656 193.602 1082.57C160.167 1132.75 136.355 1195.27 149.564 1256C163.789 1321.38 211.4 1367.25 265.626 1402.05C260.984 1411.26 253.063 1423.98 247.679 1433.18C219.498 1427.07 200.914 1421.7 174.232 1411.16C155.97 1403.98 138.476 1394.98 122.016 1384.3C80.1831 1356.96 46.9038 1312.57 36.6363 1263.28C24.6496 1205.75 48.9634 1144.03 81.514 1096.65C175.942 959.211 342.551 872.807 493.327 812.493C536.835 795.088 597.188 774.031 642.403 765.03Z"/></svg>